ply
format ascii 1.0
element vertex 11
property float x
property float y
property float z
property uchar diffuse_red
property uchar diffuse_green
property uchar diffuse_blue
end_header
-0.3804 0.0100281 -0.778861 0 255 0
0.375568 4.21691e-008 -1.5953 0 255 0
0.976114 -0.00186857 -2.08272 0 255 0
1.40518 -0.0112163 -2.17604 255 0 255
2.13037 -0.00895069 -2.38701 255 0 255
2.81978 -0.0100378 -2.39848 255 0 255
3.45838 -8.87e-008 -2.21544 255 0 255
4.04872 0.00473548 -1.70617 255 0 255
4.6278 0.00107122 -1.0275 255 0 255
5.08523 9.7112e-008 -0.442474 255 0 255
5.30637 -0.0157134 0.367186 255 0 255
